<?xml version="1.0" encoding="UTF-8"?>
<svg version="1.1" xmlns="http://www.w3.org/2000/svg" width="640" height="640">
<path d="M0 0 C211.2 0 422.4 0 640 0 C640 211.2 640 422.4 640 640 C428.8 640 217.6 640 0 640 C0 428.8 0 217.6 0 0 Z " fill="#FEFEFE" transform="translate(0,0)"/>
<path d="M0 0 C2.32858681 1.26373483 4.50470914 2.63854704 6.6953125 4.12890625 C7.52160156 4.68320313 8.34789062 5.2375 9.19921875 5.80859375 C11.72668707 7.54502237 14.2147201 9.32628926 16.6953125 11.12890625 C17.45585937 11.6703125 18.21640625 12.21171875 19 12.76953125 C19.70382812 13.28 20.40765625 13.79046875 21.1328125 14.31640625 C22.05900391 14.98736328 22.05900391 14.98736328 23.00390625 15.671875 C25.94690823 18.2070707 27.53646725 20.01076027 28.09375 23.93359375 C28.08601562 24.94679688 28.07828125 25.96 28.0703125 27.00390625 C28.07804688 28.01195313 28.08578125 29.02 28.09375 30.05859375 C27.23516972 36.6747124 22.92244255 41.97537331 19.2578125 47.37890625 C18.30056744 48.80063731 17.34354978 50.2225215 16.38671875 51.64453125 C15.83177734 52.46719482 15.27683594 53.2898584 14.70507812 54.13745117 C12.69432337 57.13037854 10.69471799 60.13048736 8.69709778 63.13218689 C1.20278248 74.39270768 -6.3590886 85.60708004 -13.9296875 96.81640625 C-21.65030651 108.24870786 -29.36430023 119.6845621 -37.00274658 131.17196655 C-39.51448833 134.94735073 -42.0311547 138.71945382 -44.546875 142.4921875 C-45.64455011 144.1386593 -46.7422062 145.78514378 -47.83984375 147.43164062 C-51.16796875 152.42382812 -51.16796875 152.42382812 -54.49609375 157.41601562 C-55.04177002 158.23453003 -55.58744629 159.05304443 -56.1496582 159.8963623 C-57.24422201 161.53820801 -58.33878581 163.18005371 -59.43334961 164.82189941 C-59.97096924 165.62832886 -60.50858887 166.4347583 -61.0625 167.265625 C-62.14322917 168.88671875 -63.22395833 170.5078125 -64.3046875 172.12890625 C-64.84657715 172.94174072 -65.3884668 173.7545752 -65.94677734 174.59204102 C-71.03792318 182.22875977 -76.12906901 189.86547852 -81.22021484 197.50219727 C-81.88077881 198.49304321 -81.88077881 198.49304321 -82.5546875 199.50390625 C-84.47135417 202.37890625 -86.38802083 205.25390625 -88.3046875 208.12890625 C-88.70204102 208.72493652 -89.09939453 209.3209668 -89.50878906 209.93505859 C-91.19956951 212.47122927 -92.89044929 215.00733254 -94.58203125 217.54296875 C-95.6599946 219.16113596 -96.73586012 220.78070487 -97.80859375 222.40234375 C-102.2095156 229.04569717 -106.7547877 235.58716142 -111.3046875 242.12890625 C-106.91008718 238.78945234 -103.08563673 235.03945511 -99.20727539 231.13156128 C-98.50416009 230.42718371 -97.80104479 229.72280613 -97.07662296 228.99708378 C-94.72448504 226.63957428 -92.37594615 224.27851175 -90.02734375 221.91748047 C-88.3403964 220.22533916 -86.65320567 218.53344045 -84.96578979 216.84176636 C-81.33425866 213.20029914 -77.70418976 209.55738262 -74.07516479 205.91341782 C-68.33910377 200.15395194 -62.59782857 194.39969932 -56.85571289 188.64627075 C-54.8899733 186.67653017 -52.92426761 184.70675576 -50.95857239 182.7369709 C-50.46739581 182.2447751 -49.97621923 181.75257929 -49.47015852 181.24546846 C-43.88450339 175.64808032 -38.29992431 170.04961915 -32.71582031 164.45068359 C-32.20557363 163.93908448 -31.69532695 163.42748537 -31.16961825 162.90038325 C-22.89327637 154.60184035 -14.62078069 146.29947143 -6.34924376 137.99613963 C2.14654282 129.46797621 10.64807455 120.94556853 19.15455341 112.42807019 C23.92919942 107.64684694 28.7009617 102.86281335 33.46578979 98.07180405 C37.94423195 93.56915602 42.42951155 89.07343699 46.92019272 84.58299637 C48.56877556 82.93198639 50.21477132 81.27838856 51.85800552 79.62205505 C54.09778635 77.3651636 56.34658018 75.11765591 58.59790039 72.87228394 C59.24916869 72.21159499 59.90043699 71.55090605 60.5714407 70.87019622 C64.98350785 66.49712641 68.16549655 64.46621504 74.4453125 63.62890625 C85.18392196 64.03819477 94.1708387 76.17311435 101.22973633 83.25927734 C102.57370054 84.59753139 103.91829183 85.93515593 105.26345825 87.27220154 C108.89622127 90.88709407 112.51944058 94.51140884 116.14041734 98.13810301 C119.16954067 101.17032564 122.20325602 104.19793317 125.23694247 107.22558939 C132.39388489 114.36850958 139.54302608 121.5191712 146.68725586 128.67480469 C154.04930832 136.04834886 161.4240704 143.40900161 168.80524617 150.76339853 C175.15325897 157.08924454 181.49347273 163.42283257 187.82747668 169.76270545 C191.60582743 173.54442304 195.38700083 177.32320133 199.1756382 181.09461594 C202.73627289 184.63976713 206.2870381 188.19451838 209.83052444 191.75680733 C211.12992226 193.05988639 212.43271581 194.35958974 213.73918343 195.65558052 C215.52683162 197.42998675 217.30161033 199.21637458 219.07380676 201.00619507 C219.84671097 201.76469177 219.84671097 201.76469177 220.63522941 202.53851163 C226.65181101 208.67820346 229.37779973 215.36621474 229.9453125 223.87890625 C229.76480704 235.85995638 222.63538827 244.63850272 214.55041504 252.67494202 C213.72241945 253.50973428 212.89442386 254.34452654 212.04133749 255.20461553 C209.75301299 257.50859741 207.45812396 259.80579205 205.16018867 262.10018122 C202.67885682 264.58089896 200.20614716 267.07018702 197.73223877 269.55830383 C192.88793638 274.42748332 188.03536552 279.28833971 183.17944723 284.1459325 C179.23013653 288.09667086 175.28320851 292.04977395 171.3379364 296.00454521 C160.14036654 307.22852448 148.93653873 318.44620281 137.72463065 329.65585954 C137.12069785 330.25967247 136.51676505 330.86348541 135.89453125 331.4855957 C135.28985557 332.09014874 134.68517989 332.69470178 134.0621807 333.31757461 C124.26794301 343.11059353 114.4887491 352.91848305 104.71630079 362.73324127 C94.6703707 372.82231962 84.61323821 382.90011121 74.54441595 392.96634477 C68.89641418 398.61335252 63.25307915 404.2648455 57.6217804 409.92851448 C52.82614286 414.75154241 48.02013656 419.56393781 43.20063883 424.36312778 C40.74495405 426.80905404 38.29422922 429.25943493 35.85652924 431.72329712 C33.20342729 434.3996441 30.53232199 437.05667519 27.8560791 439.70985413 C26.72197279 440.86710647 26.72197279 440.86710647 25.56495523 442.04773766 C19.15840007 448.33355147 11.74218698 453.18452129 2.8125 454.85546875 C-10.53352845 454.43740039 -17.99250134 450.66318885 -27.3046875 441.12890625 C-29.0171059 439.24182877 -30.67560958 437.32123178 -32.3203125 435.375 C-34.91817555 432.4345054 -37.65898628 429.65592174 -40.4296875 426.87890625 C-40.93290527 426.37125732 -41.43612305 425.8636084 -41.95458984 425.34057617 C-44.92663788 422.37978219 -48.03089614 419.74375558 -51.3046875 417.12890625 C-55.03030524 413.54544245 -58.51142157 409.75900208 -61.9921875 405.94140625 C-70.90965501 396.05273917 -70.90965501 396.05273917 -80.77734375 387.1640625 C-85.65791864 383.23395506 -89.78121767 378.55986701 -93.9921875 373.94140625 C-102.90965501 364.05273917 -102.90965501 364.05273917 -112.77734375 355.1640625 C-117.08419066 351.69595239 -120.75717457 347.66603843 -124.45385742 343.57348633 C-129.76266433 337.70262211 -135.26368569 332.26345862 -141.22265625 327.0546875 C-143.3046875 325.12890625 -143.3046875 325.12890625 -144.3046875 323.12890625 C-145.2946875 322.79890625 -146.2846875 322.46890625 -147.3046875 322.12890625 C-148.8125 320.6328125 -148.8125 320.6328125 -150.4296875 318.69140625 C-151.04585937 317.97210938 -151.66203125 317.2528125 -152.296875 316.51171875 C-153.66461654 314.88852354 -155.02367531 313.2579814 -156.375 311.62109375 C-161.73921005 305.33400885 -167.23489424 301.31742527 -174.3046875 297.12890625 C-191.62056684 286.49714757 -191.62056684 286.49714757 -196.3046875 277.12890625 C-197.65158198 269.21803234 -194.675758 264.47883161 -190.3046875 258.12890625 C-189.22582059 256.48549259 -188.14696805 254.84206948 -187.06835938 253.19848633 C-181.80609146 245.22700609 -176.37884962 237.36423591 -170.99023438 229.47802734 C-165.45757581 221.37343776 -160.00142093 213.21988995 -154.57568359 205.04345703 C-152.78102782 202.34009733 -150.98042599 199.64071684 -149.1796875 196.94140625 C-148.55578125 196.00554687 -147.931875 195.0696875 -147.2890625 194.10546875 C-142.9453125 187.58984375 -142.9453125 187.58984375 -141.69799805 185.71899414 C-140.8555625 184.45525974 -140.01327622 183.19142583 -139.17114258 181.92749023 C-136.96790331 178.62114753 -134.76172964 175.31681851 -132.55078125 172.015625 C-132.10138184 171.34378174 -131.65198242 170.67193848 -131.18896484 169.97973633 C-130.33217586 168.69898398 -129.47448412 167.41883491 -128.61572266 166.1394043 C-126.8718143 163.53074503 -125.19214916 160.93030918 -123.64453125 158.19921875 C-123.20238281 157.51601562 -122.76023437 156.8328125 -122.3046875 156.12890625 C-121.6446875 156.12890625 -120.9846875 156.12890625 -120.3046875 156.12890625 C-120.05332031 155.24847656 -119.80195313 154.36804688 -119.54296875 153.4609375 C-118.26048773 150.00997123 -116.73814394 147.7151072 -114.4921875 144.81640625 C-110.95909068 140.11848152 -107.98781417 135.35326346 -105.3046875 130.12890625 C-104.6446875 130.12890625 -103.9846875 130.12890625 -103.3046875 130.12890625 C-103.05203125 129.4225 -102.799375 128.71609375 -102.5390625 127.98828125 C-101.17656251 124.83211038 -99.4921261 122.21747908 -97.5546875 119.37890625 C-96.83925781 118.32445312 -96.12382812 117.27 -95.38671875 116.18359375 C-94.69964844 115.17554688 -94.01257813 114.1675 -93.3046875 113.12890625 C-92.28190071 111.58853487 -91.26085308 110.04700613 -90.2421875 108.50390625 C-88.13966729 105.34727699 -85.98607733 102.23153949 -83.8046875 99.12890625 C-80.55941024 94.51198676 -77.42026333 89.83391806 -74.3046875 85.12890625 C-72.63950429 82.6279168 -70.97199428 80.12848033 -69.3046875 77.62890625 C-68.42965036 76.31643101 -67.55464951 75.00393158 -66.6796875 73.69140625 C-61.3046875 65.62890625 -61.3046875 65.62890625 -59.92578125 63.5625 C-58.60318591 61.57701349 -57.28346199 59.5896894 -55.96484375 57.6015625 C-51.70607578 51.18786281 -47.40749999 44.81817094 -42.95703125 38.53515625 C-41.12081741 35.86114272 -39.39881538 33.12951085 -37.6796875 30.37890625 C-35.79950381 27.38407227 -33.93803757 24.54752897 -31.6171875 21.87890625 C-29.50419034 19.36615287 -27.97434839 16.86252796 -26.40234375 13.9921875 C-20.40325518 3.80868128 -12.75498595 -4.82095232 0 0 Z " fill="#FDFDFD" transform="translate(303.3046875,67.87109375)"/>
<path d="M0 0 C2.32858681 1.26373483 4.50470914 2.63854704 6.6953125 4.12890625 C7.52160156 4.68320313 8.34789062 5.2375 9.19921875 5.80859375 C11.72668707 7.54502237 14.2147201 9.32628926 16.6953125 11.12890625 C17.45585937 11.6703125 18.21640625 12.21171875 19 12.76953125 C19.70382812 13.28 20.40765625 13.79046875 21.1328125 14.31640625 C22.05900391 14.98736328 22.05900391 14.98736328 23.00390625 15.671875 C25.94690823 18.2070707 27.53646725 20.01076027 28.09375 23.93359375 C28.08601562 24.94679688 28.07828125 25.96 28.0703125 27.00390625 C28.07804688 28.01195313 28.08578125 29.02 28.09375 30.05859375 C27.23516972 36.6747124 22.92244255 41.97537331 19.2578125 47.37890625 C18.30056744 48.80063731 17.34354978 50.2225215 16.38671875 51.64453125 C15.83177734 52.46719482 15.27683594 53.2898584 14.70507812 54.13745117 C12.69432337 57.13037854 10.69471799 60.13048736 8.69709778 63.13218689 C1.20278248 74.39270768 -6.3590886 85.60708004 -13.9296875 96.81640625 C-21.65030651 108.24870786 -29.36430023 119.6845621 -37.00274658 131.17196655 C-39.51448833 134.94735073 -42.0311547 138.71945382 -44.546875 142.4921875 C-45.64455011 144.1386593 -46.7422062 145.78514378 -47.83984375 147.43164062 C-51.16796875 152.42382812 -51.16796875 152.42382812 -54.49609375 157.41601562 C-55.04177002 158.23453003 -55.58744629 159.05304443 -56.1496582 159.8963623 C-57.24422201 161.53820801 -58.33878581 163.18005371 -59.43334961 164.82189941 C-59.97096924 165.62832886 -60.50858887 166.4347583 -61.0625 167.265625 C-62.14322917 168.88671875 -63.22395833 170.5078125 -64.3046875 172.12890625 C-64.84657715 172.94174072 -65.3884668 173.7545752 -65.94677734 174.59204102 C-71.03792318 182.22875977 -76.12906901 189.86547852 -81.22021484 197.50219727 C-81.88077881 198.49304321 -81.88077881 198.49304321 -82.5546875 199.50390625 C-84.47135417 202.37890625 -86.38802083 205.25390625 -88.3046875 208.12890625 C-88.70204102 208.72493652 -89.09939453 209.3209668 -89.50878906 209.93505859 C-91.19956951 212.47122927 -92.89044929 215.00733254 -94.58203125 217.54296875 C-95.6599946 219.16113596 -96.73586012 220.78070487 -97.80859375 222.40234375 C-102.2095156 229.04569717 -106.7547877 235.58716142 -111.3046875 242.12890625 C-106.91008718 238.78945234 -103.08563673 235.03945511 -99.20727539 231.13156128 C-98.50416009 230.42718371 -97.80104479 229.72280613 -97.07662296 228.99708378 C-94.72448504 226.63957428 -92.37594615 224.27851175 -90.02734375 221.91748047 C-88.3403964 220.22533916 -86.65320567 218.53344045 -84.96578979 216.84176636 C-81.33425866 213.20029914 -77.70418976 209.55738262 -74.07516479 205.91341782 C-68.33910377 200.15395194 -62.59782857 194.39969932 -56.85571289 188.64627075 C-54.8899733 186.67653017 -52.92426761 184.70675576 -50.95857239 182.7369709 C-50.46739581 182.2447751 -49.97621923 181.75257929 -49.47015852 181.24546846 C-43.88450339 175.64808032 -38.29992431 170.04961915 -32.71582031 164.45068359 C-32.20557363 163.93908448 -31.69532695 163.42748537 -31.16961825 162.90038325 C-22.89327637 154.60184035 -14.62078069 146.29947143 -6.34924376 137.99613963 C2.14654282 129.46797621 10.64807455 120.94556853 19.15455341 112.42807019 C23.92919942 107.64684694 28.7009617 102.86281335 33.46578979 98.07180405 C37.94423195 93.56915602 42.42951155 89.07343699 46.92019272 84.58299637 C48.56877556 82.93198639 50.21477132 81.27838856 51.85800552 79.62205505 C54.09778635 77.3651636 56.34658018 75.11765591 58.59790039 72.87228394 C59.24916869 72.21159499 59.90043699 71.55090605 60.5714407 70.87019622 C64.98350785 66.49712641 68.16549655 64.46621504 74.4453125 63.62890625 C85.18392196 64.03819477 94.1708387 76.17311435 101.22973633 83.25927734 C102.57370054 84.59753139 103.91829183 85.93515593 105.26345825 87.27220154 C108.89622127 90.88709407 112.51944058 94.51140884 116.14041734 98.13810301 C119.16954067 101.17032564 122.20325602 104.19793317 125.23694247 107.22558939 C132.39388489 114.36850958 139.54302608 121.5191712 146.68725586 128.67480469 C154.04930832 136.04834886 161.4240704 143.40900161 168.80524617 150.76339853 C175.15325897 157.08924454 181.49347273 163.42283257 187.82747668 169.76270545 C191.60582743 173.54442304 195.38700083 177.32320133 199.1756382 181.09461594 C202.73627289 184.63976713 206.2870381 188.19451838 209.83052444 191.75680733 C211.12992226 193.05988639 212.43271581 194.35958974 213.73918343 195.65558052 C215.52683162 197.42998675 217.30161033 199.21637458 219.07380676 201.00619507 C219.84671097 201.76469177 219.84671097 201.76469177 220.63522941 202.53851163 C226.65181101 208.67820346 229.37779973 215.36621474 229.9453125 223.87890625 C229.76480704 235.85995638 222.63538827 244.63850272 214.55041504 252.67494202 C213.72241945 253.50973428 212.89442386 254.34452654 212.04133749 255.20461553 C209.75301299 257.50859741 207.45812396 259.80579205 205.16018867 262.10018122 C202.67885682 264.58089896 200.20614716 267.07018702 197.73223877 269.55830383 C192.88793638 274.42748332 188.03536552 279.28833971 183.17944723 284.1459325 C179.23013653 288.09667086 175.28320851 292.04977395 171.3379364 296.00454521 C160.14036654 307.22852448 148.93653873 318.44620281 137.72463065 329.65585954 C137.12069785 330.25967247 136.51676505 330.86348541 135.89453125 331.4855957 C135.28985557 332.09014874 134.68517989 332.69470178 134.0621807 333.31757461 C124.26794301 343.11059353 114.4887491 352.91848305 104.71630079 362.73324127 C94.6703707 372.82231962 84.61323821 382.90011121 74.54441595 392.96634477 C68.89641418 398.61335252 63.25307915 404.2648455 57.6217804 409.92851448 C52.82614286 414.75154241 48.02013656 419.56393781 43.20063883 424.36312778 C40.74495405 426.80905404 38.29422922 429.25943493 35.85652924 431.72329712 C33.20342729 434.3996441 30.53232199 437.05667519 27.8560791 439.70985413 C26.72197279 440.86710647 26.72197279 440.86710647 25.56495523 442.04773766 C19.15840007 448.33355147 11.74218698 453.18452129 2.8125 454.85546875 C-10.53352845 454.43740039 -17.99250134 450.66318885 -27.3046875 441.12890625 C-29.0171059 439.24182877 -30.67560958 437.32123178 -32.3203125 435.375 C-34.91817555 432.4345054 -37.65898628 429.65592174 -40.4296875 426.87890625 C-40.93290527 426.37125732 -41.43612305 425.8636084 -41.95458984 425.34057617 C-44.92663788 422.37978219 -48.03089614 419.74375558 -51.3046875 417.12890625 C-55.03030524 413.54544245 -58.51142157 409.75900208 -61.9921875 405.94140625 C-70.90965501 396.05273917 -70.90965501 396.05273917 -80.77734375 387.1640625 C-85.65791864 383.23395506 -89.78121767 378.55986701 -93.9921875 373.94140625 C-102.90965501 364.05273917 -102.90965501 364.05273917 -112.77734375 355.1640625 C-117.08419066 351.69595239 -120.75717457 347.66603843 -124.45385742 343.57348633 C-129.76266433 337.70262211 -135.26368569 332.26345862 -141.22265625 327.0546875 C-143.3046875 325.12890625 -143.3046875 325.12890625 -144.3046875 323.12890625 C-145.2946875 322.79890625 -146.2846875 322.46890625 -147.3046875 322.12890625 C-148.8125 320.6328125 -148.8125 320.6328125 -150.4296875 318.69140625 C-151.04585937 317.97210938 -151.66203125 317.2528125 -152.296875 316.51171875 C-153.66461654 314.88852354 -155.02367531 313.2579814 -156.375 311.62109375 C-161.73921005 305.33400885 -167.23489424 301.31742527 -174.3046875 297.12890625 C-191.62056684 286.49714757 -191.62056684 286.49714757 -196.3046875 277.12890625 C-197.65158198 269.21803234 -194.675758 264.47883161 -190.3046875 258.12890625 C-189.22582059 256.48549259 -188.14696805 254.84206948 -187.06835938 253.19848633 C-181.80609146 245.22700609 -176.37884962 237.36423591 -170.99023438 229.47802734 C-165.45757581 221.37343776 -160.00142093 213.21988995 -154.57568359 205.04345703 C-152.78102782 202.34009733 -150.98042599 199.64071684 -149.1796875 196.94140625 C-148.55578125 196.00554687 -147.931875 195.0696875 -147.2890625 194.10546875 C-142.9453125 187.58984375 -142.9453125 187.58984375 -141.69799805 185.71899414 C-140.8555625 184.45525974 -140.01327622 183.19142583 -139.17114258 181.92749023 C-136.96790331 178.62114753 -134.76172964 175.31681851 -132.55078125 172.015625 C-132.10138184 171.34378174 -131.65198242 170.67193848 -131.18896484 169.97973633 C-130.33217586 168.69898398 -129.47448412 167.41883491 -128.61572266 166.1394043 C-126.8718143 163.53074503 -125.19214916 160.93030918 -123.64453125 158.19921875 C-123.20238281 157.51601562 -122.76023437 156.8328125 -122.3046875 156.12890625 C-121.6446875 156.12890625 -120.9846875 156.12890625 -120.3046875 156.12890625 C-120.05332031 155.24847656 -119.80195313 154.36804688 -119.54296875 153.4609375 C-118.26048773 150.00997123 -116.73814394 147.7151072 -114.4921875 144.81640625 C-110.95909068 140.11848152 -107.98781417 135.35326346 -105.3046875 130.12890625 C-104.6446875 130.12890625 -103.9846875 130.12890625 -103.3046875 130.12890625 C-103.05203125 129.4225 -102.799375 128.71609375 -102.5390625 127.98828125 C-101.17656251 124.83211038 -99.4921261 122.21747908 -97.5546875 119.37890625 C-96.83925781 118.32445312 -96.12382812 117.27 -95.38671875 116.18359375 C-94.69964844 115.17554688 -94.01257813 114.1675 -93.3046875 113.12890625 C-92.28190071 111.58853487 -91.26085308 110.04700613 -90.2421875 108.50390625 C-88.13966729 105.34727699 -85.98607733 102.23153949 -83.8046875 99.12890625 C-80.55941024 94.51198676 -77.42026333 89.83391806 -74.3046875 85.12890625 C-72.63950429 82.6279168 -70.97199428 80.12848033 -69.3046875 77.62890625 C-68.42965036 76.31643101 -67.55464951 75.00393158 -66.6796875 73.69140625 C-61.3046875 65.62890625 -61.3046875 65.62890625 -59.92578125 63.5625 C-58.60318591 61.57701349 -57.28346199 59.5896894 -55.96484375 57.6015625 C-51.70607578 51.18786281 -47.40749999 44.81817094 -42.95703125 38.53515625 C-41.12081741 35.86114272 -39.39881538 33.12951085 -37.6796875 30.37890625 C-35.79950381 27.38407227 -33.93803757 24.54752897 -31.6171875 21.87890625 C-29.50419034 19.36615287 -27.97434839 16.86252796 -26.40234375 13.9921875 C-20.40325518 3.80868128 -12.75498595 -4.82095232 0 0 Z M99.85911274 110.58758259 C99.07982578 111.35904631 98.30053881 112.13051003 97.49763709 112.92535144 C96.6425851 113.7870956 95.7875331 114.64883977 94.90657043 115.53669739 C93.54290259 116.89334528 93.54290259 116.89334528 92.15168589 118.2774002 C89.62050553 120.79600481 87.09883053 123.32394569 84.57857192 125.85347283 C81.8620835 128.5767246 79.13700808 131.29135945 76.41300964 134.00709534 C71.07495667 139.33177969 65.74508107 144.66457822 60.41805295 150.00028995 C56.09010157 154.33500519 51.75924467 158.66679713 47.42627525 162.9964962 C46.81055153 163.61176023 46.1948278 164.22702425 45.56044578 164.86093264 C44.30976311 166.11065618 43.05907369 167.36037297 41.80837759 168.61008307 C30.06960791 180.34028968 18.34006615 192.0796891 6.61363413 203.82222762 C-3.45737453 213.90664028 -13.53622319 223.98316111 -23.62084961 234.05395508 C-35.32019086 245.73725668 -47.01466897 257.42539062 -58.70138246 269.12132472 C-59.94661451 270.36751246 -61.19185285 271.61369391 -62.43709755 272.859869 C-63.04984507 273.47307935 -63.66259258 274.08628969 -64.2939082 274.71808216 C-68.62080112 279.04756982 -72.9511748 283.37355725 -77.28288841 287.69822121 C-82.55875066 292.96568617 -87.82926826 298.23842876 -93.09292074 303.51809577 C-95.78076164 306.21384331 -98.47098634 308.9070951 -101.16772079 311.59394836 C-104.08560037 314.50129753 -106.99180318 317.42003863 -109.89689636 320.34016418 C-110.75864052 321.19521618 -111.62038469 322.05026818 -112.50824231 322.93123084 C-113.27970603 323.71051781 -114.05116975 324.48980477 -114.84601116 325.29270649 C-115.51876825 325.96595064 -116.19152534 326.63919478 -116.88466901 327.33284026 C-118.61478827 329.13952615 -118.61478827 329.13952615 -118.3046875 332.12890625 C-117.04710471 333.52597819 -117.04710471 333.52597819 -115.2421875 334.87890625 C-109.94173317 339.28162597 -105.20137651 344.20794492 -100.40991211 349.14941406 C-99.77964111 349.79104492 -99.14937012 350.43267578 -98.5 351.09375 C-97.93297363 351.67761475 -97.36594727 352.26147949 -96.78173828 352.86303711 C-95.37580008 354.34581948 -95.37580008 354.34581948 -93.3046875 354.12890625 C-93.03172852 354.72652771 -92.75876953 355.32414917 -92.47753906 355.93988037 C-91.33768882 358.06731215 -90.23253807 359.45431097 -88.5390625 361.15332031 C-87.98508789 361.71359924 -87.43111328 362.27387817 -86.86035156 362.85113525 C-86.26448242 363.44295593 -85.66861328 364.03477661 -85.0546875 364.64453125 C-84.44077148 365.26036072 -83.82685547 365.87619019 -83.19433594 366.51068115 C-81.89894267 367.80743271 -80.60103106 369.10167282 -79.30078125 370.39355469 C-77.30493682 372.37865827 -75.32002024 374.37424216 -73.3359375 376.37109375 C-72.07616195 377.62954836 -70.81576649 378.88738279 -69.5546875 380.14453125 C-68.95881836 380.74444885 -68.36294922 381.34436646 -67.74902344 381.96246338 C-65.03183651 385.08143197 -65.03183651 385.08143197 -61.3046875 386.12890625 C-61.03172852 386.72652771 -60.75876953 387.32414917 -60.47753906 387.93988037 C-59.33768882 390.06731215 -58.23253807 391.45431097 -56.5390625 393.15332031 C-55.98508789 393.71359924 -55.43111328 394.27387817 -54.86035156 394.85113525 C-54.26448242 395.44295593 -53.66861328 396.03477661 -53.0546875 396.64453125 C-52.44077148 397.26036072 -51.82685547 397.87619019 -51.19433594 398.51068115 C-49.89894267 399.80743271 -48.60103106 401.10167282 -47.30078125 402.39355469 C-45.30493682 404.37865827 -43.32002024 406.37424216 -41.3359375 408.37109375 C-40.07616195 409.62954836 -38.81576649 410.88738279 -37.5546875 412.14453125 C-36.95881836 412.74444885 -36.36294922 413.34436646 -35.74902344 413.96246338 C-33.03183651 417.08143197 -33.03183651 417.08143197 -29.3046875 418.12890625 C-29.05557617 418.70036377 -28.80646484 419.27182129 -28.54980469 419.8605957 C-26.09248352 424.33725668 -22.12787005 427.71778174 -18.5546875 431.31640625 C-17.75546875 432.14849609 -16.95625 432.98058594 -16.1328125 433.83789062 C-14.9571875 435.02415039 -14.9571875 435.02415039 -13.7578125 436.234375 C-13.04786133 436.95778076 -12.33791016 437.68118652 -11.60644531 438.42651367 C-8.79915072 440.502804 -6.75067829 440.79834808 -3.3046875 441.12890625 C-2.0465625 441.27328125 -0.7884375 441.41765625 0.5078125 441.56640625 C9.31906506 441.41975015 16.54251983 432.71149828 22.31222534 426.87948608 C23.13042539 426.06455488 23.94862543 425.24962367 24.79161942 424.40999758 C27.51391339 421.69494932 30.2254037 418.96936985 32.93701172 416.24365234 C34.89256959 414.28721996 36.85038147 412.33304871 38.80809021 410.37876892 C43.56058685 405.63188698 48.30510583 400.87710856 53.0469666 396.11960457 C58.57165346 390.57733308 64.10443711 385.04317388 69.63759448 379.5093611 C79.50829187 369.63697818 89.37192029 359.75756315 99.23144531 349.87402344 C108.7966294 340.28555858 118.36636827 330.70167188 127.94140625 321.12304688 C128.82693335 320.23718563 128.82693335 320.23718563 129.73034988 319.33342819 C130.91965286 318.14368261 132.10895613 316.95393732 133.29825968 315.76419232 C134.17828751 314.88383515 134.17828751 314.88383515 135.07609367 313.98569298 C135.66130999 313.40026068 136.24652631 312.81482837 136.84947645 312.2116557 C145.98052347 303.07690839 155.10774007 293.93833443 164.23442604 284.79923021 C167.54097427 281.48824855 170.84801955 278.17776428 174.1554101 274.86762403 C179.39859538 269.62000662 184.64010294 264.37072539 189.8782156 259.11804412 C192.27129043 256.71836439 194.66512774 254.31945938 197.06111336 251.92268562 C199.65650337 249.32555256 202.24880431 246.72537572 204.84030151 244.12435913 C205.59972262 243.3658045 206.35914373 242.60724988 207.1415776 241.82570875 C207.83519618 241.12824903 208.52881475 240.43078931 209.24345207 239.71219444 C209.84194902 239.11245099 210.44044597 238.51270755 211.0570792 237.89479005 C215.85327396 232.72487767 216.73868378 229.35763563 217.0234375 222.32421875 C216.2188693 216.94127436 213.02958985 213.0876351 209.29260254 209.34524536 C208.39249954 208.43668289 207.49239655 207.52812042 206.5650177 206.59202576 C205.57018851 205.60302835 204.57520344 204.61418772 203.58007812 203.62548828 C202.52970713 202.57104898 201.47997471 201.51597323 200.43083191 200.46031189 C197.58870995 197.60454643 194.73722046 194.75831195 191.8835125 191.91412973 C188.89753905 188.93576221 185.91890396 185.95007014 182.93908691 182.96554565 C177.93759395 177.95860041 172.9298205 172.95800214 167.91845703 167.9609375 C162.12047038 162.17930307 156.33340647 156.38690414 150.55184603 150.58884728 C145.58743984 145.6108431 140.61723132 140.63868897 135.64209318 135.67141044 C132.6705297 132.70452932 129.70104315 129.73564576 126.73677063 126.76147842 C123.95281483 123.96887887 121.16166545 121.18367795 118.36470985 118.40410042 C117.3377626 117.38113074 116.31337974 116.35557951 115.29172325 115.32732582 C113.90074313 113.92819164 112.49965654 112.53912633 111.09802246 111.15066528 C110.3156295 110.3694034 109.53323654 109.58814152 108.7271347 108.78320503 C104.8222581 105.60387536 102.94554752 107.50338068 99.85911274 110.58758259 Z " fill="#070707" transform="translate(303.3046875,67.87109375)"/>
<path d="M0 0 C3.52351371 2.53692987 5.31031522 5.06638097 7 9 C8.19559284 17.06674073 5.81795005 24.79265756 3.6875 32.5 C3.37876953 33.65886719 3.07003906 34.81773437 2.75195312 36.01171875 C1.17216946 41.89849155 -0.50900607 47.74647543 -2.27758789 53.57885742 C-4.34992524 60.52423407 -6.14380134 67.53531135 -7.8671875 74.57421875 C-8.36706433 76.59471609 -8.86805588 78.61493285 -9.36962891 80.63500977 C-9.7075871 82.00757719 -10.04089564 83.38129752 -10.36962891 84.75610352 C-14.47157752 101.85972802 -14.47157752 101.85972802 -21.1875 108 C-25.61225796 109.57324728 -29.37800782 109.86444203 -34 109 C-35.79447937 107.86392212 -35.79447937 107.86392212 -37.50268555 106.27197266 C-38.19131683 105.63350403 -38.87994812 104.9950354 -39.58944702 104.33721924 C-40.3849295 103.56593689 -41.18041199 102.79465454 -42 102 C-42.68988699 101.33163746 -42.68988699 101.33163746 -43.39371109 100.64977264 C-47.345225 96.8089128 -51.24683527 92.91877863 -55.14453125 89.0234375 C-56.40379316 87.76739466 -57.66312772 86.51142465 -58.92253113 85.25552368 C-61.54737525 82.63663474 -64.17017766 80.01572049 -66.79174805 77.39355469 C-70.14683115 74.03836949 -73.50877155 70.69014628 -76.87247181 67.34360313 C-79.46927535 64.75792095 -82.06151833 62.16770366 -84.65250206 59.57619095 C-85.89042464 58.33944576 -87.129963 57.10431565 -88.37116432 55.87086105 C-90.10355691 54.14828276 -91.82947915 52.4194636 -93.55395508 50.68896484 C-94.31841194 49.93293724 -94.31841194 49.93293724 -95.09831238 49.16163635 C-98.52506813 45.70443923 -101.61450441 42.41879587 -102.3984375 37.5 C-102.31663218 28.77409868 -102.31663218 28.77409868 -99 25 C-95.47029758 22.61383051 -92.18495032 21.30533427 -88.08203125 20.203125 C-86.9223584 19.88754639 -85.76268555 19.57196777 -84.56787109 19.24682617 C-82.7089624 18.75339722 -82.7089624 18.75339722 -80.8125 18.25 C-79.51885926 17.9008264 -78.22540442 17.55096338 -76.93212891 17.20043945 C-73.60857547 16.30145938 -70.28272622 15.411303 -66.95623779 14.52325439 C-63.86646944 13.6968033 -60.77900921 12.86184241 -57.69140625 12.02734375 C-53.3760982 10.86174761 -49.05981075 9.69995823 -44.7421875 8.54296875 C-35.27653604 6.00504988 -35.27653604 6.00504988 -25.83203125 3.38989258 C-8.2575334 -1.55077273 -8.2575334 -1.55077273 0 0 Z " fill="#020202" transform="translate(388,306)"/>
<path d="M0 0 C-0.33 0.99 -0.66 1.98 -1 3 C-14.25856 5.42910369 -28.10510045 5.24511514 -41.5546875 5.5546875 C-42.88048136 5.5860914 -42.88048136 5.5860914 -44.23305893 5.61812973 C-67.1426039 6.14703256 -90.05374716 6.15243774 -112.96826172 6.13037109 C-118.93502722 6.1246679 -124.90174816 6.12807328 -130.86851215 6.13380814 C-153.02713942 6.15189895 -175.17935058 6.11139248 -197.33203125 5.5546875 C-198.12149769 5.53527225 -198.91096413 5.51585701 -199.72435379 5.49585342 C-237.59881583 4.53294071 -237.59881583 4.53294071 -253 2 C-253 1.67 -253 1.34 -253 1 C-236.14786201 -0.19109247 -219.30237592 -1.33320361 -202.41503906 -1.88671875 C-200.06264369 -1.96475074 -197.71043063 -2.04841505 -195.35839844 -2.13671875 C-130.59817368 -4.5191481 -64.61960747 -5.200758 0 0 Z " fill="#EEEEEE" transform="translate(423,557)"/>
<path d="M0 0 C3.70380093 7.40760185 0.24387064 20.43873999 -0.65405273 28.50756836 C-0.9402154 31.086976 -1.21574656 33.66737342 -1.49023438 36.24804688 C-1.66864679 37.88548478 -1.84766079 39.52285728 -2.02734375 41.16015625 C-2.10967758 41.93295425 -2.19201141 42.70575226 -2.27684021 43.50196838 C-2.88476613 48.88476613 -2.88476613 48.88476613 -4 50 C-6.5625 50.5 -6.5625 50.5 -10 50 C-15.17624296 46.50199206 -19.11693715 41.82759165 -23 37 C-25.55612636 34.31279024 -28.1199811 31.90251536 -31 29.5625 C-34.07903881 26.93248768 -36.45078401 24.1374966 -39 21 C-41.54829905 18.38799348 -44.0905052 15.92326733 -46.875 13.5625 C-49 11 -49 11 -48.8125 7.6875 C-48.544375 6.800625 -48.27625 5.91375 -48 5 C-40.05259673 3.21687006 -32.09505509 2.22255919 -24 1.375 C-22.7934375 1.2409375 -21.586875 1.106875 -20.34375 0.96875 C-13.53270663 0.24322582 -6.84952104 -0.19530604 0 0 Z " fill="#F8F8F8" transform="translate(178,332)"/>
<path d="M0 0 C0.32466241 5.74287456 0.55868146 11.48027584 0.71411133 17.23022461 C0.77896094 19.17941406 0.86728935 21.12798427 0.98071289 23.07495117 C1.94563716 40.08119567 1.94563716 40.08119567 -2.88134766 46.26416016 C-5.97076933 49.61305738 -9.25139204 52.41388306 -13 55 C-13.66 55 -14.32 55 -15 55 C-15.33 55.99 -15.66 56.98 -16 58 C-16.33 58 -16.66 58 -17 58 C-17.37532365 52.15149513 -17.64490255 46.31019795 -17.82397461 40.45239258 C-17.89869377 38.4680767 -18.00053206 36.48456622 -18.1315918 34.50317383 C-19.24513182 17.21491916 -19.24513182 17.21491916 -13.66455078 10.25048828 C-4.12069643 0 -4.12069643 0 0 0 Z " fill="#F5F5F5" transform="translate(348,175)"/>
<path d="M0 0 C1.77466988 41.43747264 1.77466988 41.43747264 -4.59375 50.484375 C-8.18024036 54.37381142 -12.23697795 57.65709202 -17 60 C-17.33 60 -17.66 60 -18 60 C-18.04742625 53.07722721 -18.05980553 46.15715085 -18.00390625 39.234375 C-17.97522912 35.17786464 -18.01182672 31.18350152 -18.33984375 27.140625 C-18.61518981 20.45173038 -17.78593857 16.56395497 -13.40625 11.484375 C-2.52943548 0 -2.52943548 0 0 0 Z " fill="#F7F7F7" transform="translate(306,216)"/>
<path d="M0 0 C-0.43570313 0.61746094 -0.87140625 1.23492187 -1.3203125 1.87109375 C-1.91585937 2.71800781 -2.51140625 3.56492188 -3.125 4.4375 C-3.70507812 5.26121094 -4.28515625 6.08492187 -4.8828125 6.93359375 C-6.98423995 9.75512633 -6.98423995 9.75512633 -7.9284668 12.19775391 C-9.59480064 15.61929274 -11.19260353 18.20610119 -14.79187012 19.78707886 C-20.26226193 21.54640691 -25.91540087 22.49611883 -31.5625 23.5 C-33.27606051 23.83250366 -34.9889641 24.16841182 -36.70117188 24.5078125 C-39.84096074 25.12459877 -42.98287877 25.72275323 -46.13110352 26.29492188 C-49.09453207 26.83498508 -52.04905541 27.39647224 -55 28 C-52.14755112 20.39346967 -48.47131204 10.74769146 -40.78027344 6.88525391 C-35.57536943 5.10835 -30.2144329 4.24625189 -24.78662109 3.44287109 C-21.99830286 2.99973028 -19.27158473 2.42924191 -16.51953125 1.80078125 C-15.65384521 1.60315186 -14.78815918 1.40552246 -13.89624023 1.2019043 C-13.06423096 1.01152588 -12.23222168 0.82114746 -11.375 0.625 C-3.48055322 -1.16018441 -3.48055322 -1.16018441 0 0 Z " fill="#F4F4F4" transform="translate(296,132)"/>
<path d="M0 0 C-0.84886923 1.46142322 -1.70452382 2.91890465 -2.5625 4.375 C-3.27599609 5.59316406 -3.27599609 5.59316406 -4.00390625 6.8359375 C-4.66261719 7.88007813 -5.32132813 8.92421875 -6 10 C-6.44569336 10.81831299 -6.89138672 11.63662598 -7.35058594 12.47973633 C-9.66788434 16.35751334 -11.49990163 19.31977807 -15.69848633 21.22363281 C-18.8385579 22.00027292 -21.91839915 22.51452293 -25.125 22.9375 C-27.35957804 23.30344982 -29.59395566 23.6706257 -31.828125 24.0390625 C-32.89353516 24.20051758 -33.95894531 24.36197266 -35.05664062 24.52832031 C-38.72102508 25.11554582 -42.27248734 25.92409756 -45.875 26.8125 C-48.77667775 27.52803634 -51.00389412 28 -54 28 C-51.19628362 20.23355569 -46.59247985 10.36527721 -39.01171875 6.4609375 C-35.66328414 5.70201459 -32.41819617 5.31753735 -29 5 C-26.21860045 4.53249821 -23.45498047 3.98057825 -20.6875 3.4375 C-19.33088363 3.18925855 -17.97411798 2.94183121 -16.6171875 2.6953125 C-13.80823042 2.15536179 -11.07263418 1.55200765 -8.3125 0.8125 C-5.33910469 0.08317662 -3.02674814 -0.0670319 0 0 Z " fill="#F7F7F7" transform="translate(229,231)"/>
<path d="M0 0 C-1.35328799 3.75168948 -3.05663638 6.76036524 -5.375 10 C-6.25285156 11.2375 -6.25285156 11.2375 -7.1484375 12.5 C-8.06496094 13.7375 -8.06496094 13.7375 -9 15 C-9.5470459 15.83563477 -10.0940918 16.67126953 -10.65771484 17.53222656 C-13.59276509 20.62452257 -16.28566156 21.24192595 -20.328125 21.984375 C-21.0359613 22.1303009 -21.74379761 22.27622681 -22.4730835 22.42657471 C-24.72874306 22.88651949 -26.98880055 23.3182156 -29.25 23.75 C-30.75426473 24.05422239 -32.2581765 24.36019558 -33.76171875 24.66796875 C-40.48798564 26.02482328 -47.18137078 27.20484118 -54 28 C-46.77329112 12.71273121 -46.77329112 12.71273121 -41 8 C-38.14013672 7.14038086 -38.14013672 7.14038086 -34.6796875 6.46484375 C-33.4215625 6.21283203 -32.1634375 5.96082031 -30.8671875 5.70117188 C-29.53652939 5.44624339 -28.20579965 5.19168857 -26.875 4.9375 C-24.28897585 4.42621933 -21.70303634 3.91451035 -19.1171875 3.40234375 C-17.27785645 3.04438721 -17.27785645 3.04438721 -15.40136719 2.67919922 C-12.50772199 2.10138405 -9.63303883 1.47844196 -6.7578125 0.81640625 C-3 0 -3 0 0 0 Z " fill="#F6F6F6" transform="translate(262,181)"/>
<path d="M0 0 C-1.875 4.75 -1.875 4.75 -3 7 C-3.66 7 -4.32 7 -5 7 C-5.2475 7.680625 -5.495 8.36125 -5.75 9.0625 C-9.73427992 18.42555781 -9.73427992 18.42555781 -14.046875 20.3828125 C-15.87992188 20.75019531 -15.87992188 20.75019531 -17.75 21.125 C-18.42377686 21.2684082 -19.09755371 21.41181641 -19.79174805 21.55957031 C-21.31541895 21.88020103 -22.84197928 22.18729195 -24.37060547 22.48339844 C-27.35076344 23.06891508 -30.31702675 23.70789334 -33.28515625 24.3515625 C-37.52721526 25.26347211 -41.77011802 26.16980384 -46.01953125 27.046875 C-46.90745361 27.23088867 -47.79537598 27.41490234 -48.71020508 27.60449219 C-51 28 -51 28 -54 28 C-52.43004467 24.68044272 -50.55176396 21.64692863 -48.5625 18.5625 C-46.00435116 14.64566168 -46.00435116 14.64566168 -43.93530273 10.46777344 C-41.02854298 6.76126056 -37.77602659 6.57138086 -33.28125 5.76171875 C-31.99982117 5.50597832 -31.99982117 5.50597832 -30.69250488 5.24507141 C-27.96511504 4.7060423 -25.2330697 4.19685573 -22.5 3.6875 C-20.65978846 3.32674085 -18.8199386 2.96413147 -16.98046875 2.59960938 C-3.70033192 0 -3.70033192 0 0 0 Z " fill="#F5F5F5" transform="translate(195,281)"/>
<path d="M0 0 C0.04714504 7.20158625 0.06185412 14.40010108 0.01171875 21.6015625 C-0.01529088 25.67543023 0.00130481 29.70856252 0.26953125 33.7734375 C0.47985261 41.08015742 -1.07843638 44.75121563 -5.97998047 49.99829102 C-14.0572438 58 -14.0572438 58 -17 58 C-19.779581 18.57271261 -19.779581 18.57271261 -13.47265625 9.6484375 C-4.56204044 0 -4.56204044 0 0 0 Z " fill="#F6F6F6" transform="translate(263,259)"/>
<path d="M0 0 C0.04817647 6.09988251 0.05972486 12.19695802 0.0078125 18.296875 C-0.0224007 22.26487499 0.04235833 26.18183931 0.3046875 30.140625 C0.60792691 37.15312943 0.28684254 41.89425137 -4.37109375 47.4375 C-7.9666039 51.25209454 -11.7807312 54.87746167 -16 58 C-16.33 58 -16.66 58 -17 58 C-17.37532365 52.15149513 -17.64490255 46.31019795 -17.82397461 40.45239258 C-17.89869377 38.4680767 -18.00053206 36.48456622 -18.1315918 34.50317383 C-19.24513182 17.21491916 -19.24513182 17.21491916 -13.66455078 10.25048828 C-4.12069643 0 -4.12069643 0 0 0 Z " fill="#F8F8F8" transform="translate(220,303)"/>
<path d="M0 0 C4.51538936 0.28143008 7.278731 1.5168281 10.875 4.1875 C11.72578125 4.81140625 12.5765625 5.4353125 13.453125 6.078125 C14.29359375 6.71234375 15.1340625 7.3465625 16 8 C17.19882812 8.88945313 17.19882812 8.88945313 18.421875 9.796875 C20.2894047 11.18758861 22.14847812 12.58808527 24 14 C23.67 16.31 23.34 18.62 23 21 C18.44771002 21.98298523 13.89447151 22.9614103 9.34033203 23.93579102 C7.79417074 24.26724954 6.24826649 24.59990959 4.70263672 24.93383789 C2.46910551 25.41615951 0.2346572 25.89401965 -2 26.37109375 C-2.68054443 26.51904892 -3.36108887 26.66700409 -4.06225586 26.81944275 C-8.69240567 27.801965 -13.29659204 28.46489548 -18 29 C-17.44648144 25.02727817 -16.31959251 22.64437169 -13.9375 19.4375 C-10.37349414 14.54067377 -7.02076661 9.53264222 -3.69921875 4.46875 C-2 2 -2 2 0 0 Z " fill="#F5F5F5" transform="translate(294,80)"/>
<path d="M0 0 C6.31779102 0.39478024 9.66131123 5.00119716 13.875 9.25 C14.67164063 10.01441406 15.46828125 10.77882812 16.2890625 11.56640625 C17.03671875 12.31277344 17.784375 13.05914062 18.5546875 13.828125 C19.24030762 14.5077832 19.92592773 15.18744141 20.63232422 15.88769531 C22 18 22 18 22.00415039 20.44311523 C20.70218941 23.75832003 18.90822608 25.57682946 16.37890625 28.08203125 C15.44369141 29.01337891 14.50847656 29.94472656 13.54492188 30.90429688 C13.05564209 31.38116943 12.5663623 31.85804199 12.06225586 32.34936523 C10.56034721 33.81460022 9.07522524 35.29537787 7.59179688 36.77929688 C0.28052047 44 0.28052047 44 -2 44 C-2.04934399 38.05518819 -2.08569282 32.11049491 -2.10986328 26.16552734 C-2.11993671 24.14206873 -2.13359595 22.11862472 -2.15087891 20.09521484 C-2.17506847 17.19104411 -2.18646949 14.28706539 -2.1953125 11.3828125 C-2.20563507 10.47443634 -2.21595764 9.56606018 -2.22659302 8.63015747 C-2.22674408 7.78943695 -2.22689514 6.94871643 -2.22705078 6.08251953 C-2.231492 5.34083527 -2.23593323 4.599151 -2.24050903 3.83499146 C-2 2 -2 2 0 0 Z " fill="#F7F7F7" transform="translate(376,145)"/>
<path d="M0 0 C2.35210784 2.11689705 2.91810953 3.44041515 3.375 6.5625 C3 9 3 9 1.875 10.875 C0 12 0 12 -3 11.875 C-7.55740433 10.54575707 -7.55740433 10.54575707 -9 8 C-8.8125 4.375 -8.8125 4.375 -8 1 C-5.17116253 -0.41441874 -3.12623255 -0.31900332 0 0 Z " fill="#181818" transform="translate(144,339)"/>
<path d="M0 0 C6.46153846 0.46153846 6.46153846 0.46153846 9 3 C9.25 6.5 9.25 6.5 9 10 C7 12 7 12 4.625 12.3125 C1.4026425 11.92888601 0.14032 11.45740444 -2 9 C-2.375 5.4375 -2.375 5.4375 -2 2 C-1.34 1.34 -0.68 0.68 0 0 Z " fill="#0F0F0F" transform="translate(163,364)"/>
<path d="M0 0 C-0.33 0.66 -0.66 1.32 -1 2 C-1.99 2.33 -2.98 2.66 -4 3 C-4.680625 3.350625 -5.36125 3.70125 -6.0625 4.0625 C-8 5 -8 5 -10 5 C-10.48489837 10.13725982 -10.48489837 10.13725982 -8 14.4375 C-7.34 14.953125 -6.68 15.46875 -6 16 C-6.99 16.33 -7.98 16.66 -9 17 C-11.89137746 14.1529106 -14.63919457 11.30727867 -17 8 C-17 4.4375 -17 4.4375 -16 2 C-10.61972975 0.80911014 -5.54708616 -0.2919519 0 0 Z M-3 2 C-1 3 -1 3 -1 3 Z " fill="#E0E0E0" transform="translate(146,335)"/>
<path d="M0 0 C0.33 0.66 0.66 1.32 1 2 C1.99 2 2.98 2 4 2 C3.85962479 3.81293089 3.71255111 5.6253443 3.5625 7.4375 C3.48128906 8.44683594 3.40007812 9.45617187 3.31640625 10.49609375 C3 13 3 13 2 14 C-0.5625 14.5 -0.5625 14.5 -4 14 C-6.91090048 11.90958673 -9.46224463 9.52487337 -12 7 C-11.01 6.34 -10.02 5.68 -9 5 C-8.34 5.66 -7.68 6.32 -7 7 C-4.41645782 7.16687448 -4.41645782 7.16687448 -2 7 C-1.34 4.69 -0.68 2.38 0 0 Z " fill="#E4E4E4" transform="translate(172,368)"/>
<path d="M0 0 C0.66 0.99 1.32 1.98 2 3 C0.46356148 6.68069887 -1.78150945 8.98775204 -4.625 11.75 C-5.85089844 12.94882812 -5.85089844 12.94882812 -7.1015625 14.171875 C-7.72804687 14.77515625 -8.35453125 15.3784375 -9 16 C-9 11.93725548 -7.34403285 10.20307076 -5.0625 6.875 C-4.33160156 5.79992187 -3.60070312 4.72484375 -2.84765625 3.6171875 C-1 1 -1 1 0 0 Z " fill="#DDDDDD" transform="translate(201,296)"/>
<path d="M0 0 C0.33 1.32 0.66 2.64 1 4 C1.66 4 2.32 4 3 4 C3 3.34 3 2.68 3 2 C3.66 2 4.32 2 5 2 C5 3.65 5 5.3 5 7 C0.545 7.495 0.545 7.495 -4 8 C-2.87548273 5.0280615 -1.77706209 2.66559313 0 0 Z " fill="#E4E4E4" transform="translate(179,251)"/>
<path d="M0 0 C1.28610235 3.85830705 0.67580926 5.34368888 -1 9 C-2.63495707 10.05104383 -4.29883624 11.05988318 -6 12 C-6 12.99 -6 13.98 -6 15 C-7.32 15.33 -8.64 15.66 -10 16 C-7.39143043 10.16907978 -3.72715559 5.1669609 0 0 Z " fill="#DEDEDE" transform="translate(245,230)"/>
<path d="M0 0 C0 4.21015592 -1.93409485 5.38209316 -4.78125 8.2890625 C-5.4309375 8.93617188 -6.080625 9.58328125 -6.75 10.25 C-7.70132812 11.24386719 -7.70132812 11.24386719 -8.671875 12.2578125 C-9.6 13.18980469 -9.6 13.18980469 -10.546875 14.140625 C-11.11245117 14.71329102 -11.67802734 15.28595703 -12.26074219 15.87597656 C-14 17 -14 17 -16.21582031 16.67871094 C-16.80459961 16.45473633 -17.39337891 16.23076172 -18 16 C-17.53851563 15.68289063 -17.07703125 15.36578125 -16.6015625 15.0390625 C-10.43965381 10.63074048 -5.25010671 5.44375819 0 0 Z " fill="#D3D3D3" transform="translate(335,502)"/>
<path d="M0 0 C0.33 0 0.66 0 1 0 C1.23053497 2.84326464 1.35903101 4.46145349 -0.25 6.875 C-2 8 -2 8 -4.0625 7.875 C-6 7 -6 7 -8 4 C-5.3260876 3.10869587 -2.76276177 2.52268466 0 2 C0 1.34 0 0.68 0 0 Z " fill="#0F0F0F" transform="translate(146,343)"/>
<path d="M0 0 C0.99 0 1.98 0 3 0 C3 0.99 3 1.98 3 3 C2.01 3.66 1.02 4.32 0 5 C-0.33 5.99 -0.66 6.98 -1 8 C-2.62652316 9.70586575 -4.29006566 11.3777546 -6 13 C-6.66 12.67 -7.32 12.34 -8 12 C-6.74151422 9.9912056 -5.46948954 7.99370702 -4.1875 6 C-3.47980469 4.88625 -2.77210938 3.7725 -2.04296875 2.625 C-1.36878906 1.75875 -0.69460937 0.8925 0 0 Z " fill="#2C2C2C" transform="translate(208,184)"/>
<path d="M0 0 C3.57104439 1.87949705 5.54744301 3.17053157 7 7 C8.98 6.67 10.96 6.34 13 6 C12.67 6.99 12.34 7.98 12 9 C9.5 9.4375 9.5 9.4375 6 9 C3.08465023 6.91536818 0.53782875 4.52494637 -2 2 C-1.34 1.34 -0.68 0.68 0 0 Z " fill="#C9C9C9" transform="translate(162,373)"/>
<path d="M0 0 C0.99 0.33 1.98 0.66 3 1 C1.87548273 3.9719385 0.77706209 6.33440687 -1 9 C-1.99 8.67 -2.98 8.34 -4 8 C-2.87548273 5.0280615 -1.77706209 2.66559313 0 0 Z " fill="#E4E4E4" transform="translate(260,207)"/>
<path d="M0 0 C0.66 0.33 1.32 0.66 2 1 C0.02 3.97 -1.96 6.94 -4 10 C-4.66 9.67 -5.32 9.34 -6 9 C-4.68775452 5.06326356 -3.08089673 2.77280706 0 0 Z " fill="#0D0D0D" transform="translate(287,164)"/>
<path d="M0 0 C0.66 0.99 1.32 1.98 2 3 C1.67 3.99 1.34 4.98 1 6 C0.01 6.33 -0.98 6.66 -2 7 C-3.70586575 8.62652316 -5.3777546 10.29006566 -7 12 C-5.61735163 9.13132769 -4.07851447 6.43975968 -2.375 3.75 C-1.92898437 3.04359375 -1.48296875 2.3371875 -1.0234375 1.609375 C-0.68570313 1.07828125 -0.34796875 0.5471875 0 0 Z " fill="#2F2F2F" transform="translate(117,320)"/>
<path d="M0 0 C0.99 0.33 1.98 0.66 3 1 C2.42655063 3.86724686 2.1385485 4.8614515 0 7 C-0.99 7 -1.98 7 -3 7 C-1.125 1.125 -1.125 1.125 0 0 Z " fill="#0F0F0F" transform="translate(251,214)"/>
<path d="M0 0 C0.66 0.99 1.32 1.98 2 3 C1.34 3 0.68 3 0 3 C-0.226875 3.556875 -0.45375 4.11375 -0.6875 4.6875 C-2.35896766 7.63246684 -4.55276352 9.68156544 -7 12 C-5.44298069 7.32894208 -2.91552627 3.91294315 0 0 Z " fill="#CDCDCD" transform="translate(277,182)"/>
<path d="M0 0 C0 0.66 0 1.32 0 2 C0.66 2.33 1.32 2.66 2 3 C-0.64 3.33 -3.28 3.66 -6 4 C-6 3.34 -6 2.68 -6 2 C-6.66 1.67 -7.32 1.34 -8 1 C-5.10765685 0.17361624 -3.11257569 0 0 0 Z " fill="#1B1B1B" transform="translate(292,106)"/>
<path d="M0 0 C-1.25 2 -1.25 2 -3 4 C-4.32 4 -5.64 4 -7 4 C-7 3.34 -7 2.68 -7 2 C-7.99 1.67 -8.98 1.34 -10 1 C-6.59437148 0.22157062 -3.49234244 -0.09978121 0 0 Z " fill="#D6D6D6" transform="translate(229,231)"/>
<path d="M0 0 C0.66 0.33 1.32 0.66 2 1 C0.8141763 4.37503669 -0.27573689 6.64722731 -3 9 C-3.33 8.01 -3.66 7.02 -4 6 C-2.0625 2.8125 -2.0625 2.8125 0 0 Z " fill="#151515" transform="translate(244,227)"/>
<path d="M0 0 C0.66 0 1.32 0 2 0 C2.33 0.99 2.66 1.98 3 3 C1.35 4.32 -0.3 5.64 -2 7 C-2 3 -2 3 0 0 Z " fill="#EBEBEB" transform="translate(205,293)"/>
<path d="M0 0 C0.66 1.32 1.32 2.64 2 4 C-0.3125 6.5 -0.3125 6.5 -3 9 C-3.99 9 -4.98 9 -6 9 C-4.02 6.03 -2.04 3.06 0 0 Z " fill="#292929" transform="translate(178,229)"/>
<path d="M0 0 C0.66 0.99 1.32 1.98 2 3 C1 6 1 6 -0.9375 7.125 C-1.618125 7.41375 -2.29875 7.7025 -3 8 C-3.99 8.495 -3.99 8.495 -5 9 C-3.7508258 5.54074837 -2.32472205 2.85306797 0 0 Z " fill="#343434" transform="translate(291,138)"/>
<path d="M0 0 C0.66 0.66 1.32 1.32 2 2 C1.9375 4 1.9375 4 1 6 C-1.5625 7.25 -1.5625 7.25 -4 8 C-2.25 2.25 -2.25 2.25 0 0 Z " fill="#272727" transform="translate(262,104)"/>
<path d="M0 0 C0.66 0 1.32 0 2 0 C2.41176754 3.60296594 2.1535853 4.78402067 0 7.8125 C-0.66 8.534375 -1.32 9.25625 -2 10 C-2.66 9.67 -3.32 9.34 -4 9 C-3.34 8.071875 -2.68 7.14375 -2 6.1875 C0.26574554 3.20363444 0.26574554 3.20363444 0 0 Z " fill="#2E2E2E" transform="translate(228,229)"/>
<path d="M0 0 C0.99 0.33 1.98 0.66 3 1 C-0.625 6.875 -0.625 6.875 -4 8 C-2.66666667 5.33333333 -1.33333333 2.66666667 0 0 Z " fill="#F0F0F0" transform="translate(407,175)"/>
<path d="M0 0 C0.66 0.33 1.32 0.66 2 1 C-1.96 4.465 -1.96 4.465 -6 8 C-6.33 7.34 -6.66 6.68 -7 6 C-2.25 1.125 -2.25 1.125 0 0 Z " fill="#282828" transform="translate(294,328)"/>
<path d="M0 0 C0.66 0.99 1.32 1.98 2 3 C-0.31 4.98 -2.62 6.96 -5 9 C-3.7508258 5.54074837 -2.32472205 2.85306797 0 0 Z " fill="#C7C7C7" transform="translate(196,303)"/>
<path d="M0 0 C0.66 0.99 1.32 1.98 2 3 C-2.75 7.875 -2.75 7.875 -5 9 C-3.50163895 5.88801935 -1.80066242 2.9465385 0 0 Z " fill="#D4D4D4" transform="translate(226,258)"/>
<path d="M0 0 C2.475 0.99 2.475 0.99 5 2 C4.34 3.32 3.68 4.64 3 6 C1.68 5.67 0.36 5.34 -1 5 C-0.67 3.35 -0.34 1.7 0 0 Z " fill="#171717" transform="translate(172,257)"/>
<path d="M0 0 C1.125 3.75 1.125 3.75 0 6 C-2.0625 7.125 -2.0625 7.125 -4 8 C-2.25 2.25 -2.25 2.25 0 0 Z M-6 8 C-5.01 8.495 -5.01 8.495 -4 9 C-4.99 9.495 -4.99 9.495 -6 10 C-6 9.34 -6 8.68 -6 8 Z " fill="#303030" transform="translate(187,216)"/>
<path d="M0 0 C0.66 0.66 1.32 1.32 2 2 C0.66667905 5.99996286 -1.4957827 6.83782337 -5 9 C-3.50163895 5.88801935 -1.80066242 2.9465385 0 0 Z " fill="#D2D2D2" transform="translate(217,194)"/>
<path d="M0 0 C1.2065625 0.0309375 1.2065625 0.0309375 2.4375 0.0625 C0.07457344 2.58838702 -1.22712511 3.95070837 -4.5625 5.0625 C-3.43829114 0.08386076 -3.43829114 0.08386076 0 0 Z " fill="#383838" transform="translate(165.5625,363.9375)"/>
<path d="M0 0 C0 3.54091616 -0.73837086 4.39042792 -3 7 C-3.99 7.495 -3.99 7.495 -5 8 C-5.3125 5.6875 -5.3125 5.6875 -5 3 C-2.5 1.1875 -2.5 1.1875 0 0 Z " fill="#212121" transform="translate(194,309)"/>
<path d="M0 0 C0.66 0 1.32 0 2 0 C1.67 1.98 1.34 3.96 1 6 C0.01 6 -0.98 6 -2 6 C-2 3 -2 3 0 0 Z " fill="#F0F0F0" transform="translate(124,304)"/>
<path d="M0 0 C0.66 0.66 1.32 1.32 2 2 C0.515 4.475 0.515 4.475 -1 7 C-1.66 5.68 -2.32 4.36 -3 3 C-2.01 2.01 -1.02 1.02 0 0 Z " fill="#131313" transform="translate(220,263)"/>
<path d="M0 0 C0.66 0.33 1.32 0.66 2 1 C1.8125 2.8125 1.8125 2.8125 1 5 C-1.5625 6.75 -1.5625 6.75 -4 8 C-2.66666667 5.33333333 -1.33333333 2.66666667 0 0 Z " fill="#212121" transform="translate(281,75)"/>
</svg>
